<?xml version="1.0" encoding="UTF-8" standalone="no"?>
<!-- Created with Inkscape (http://www.inkscape.org/) -->

<svg
   version="1.1"
   id="svg2"
   width="474.49332"
   height="583.78668"
   viewBox="0 0 474.49332 583.78668"
   sodipodi:docname="REVA-patchFC.eps"
   xmlns:inkscape="http://www.inkscape.org/namespaces/inkscape"
   xmlns:sodipodi="http://sodipodi.sourceforge.net/DTD/sodipodi-0.dtd"
   xmlns="http://www.w3.org/2000/svg"
   xmlns:svg="http://www.w3.org/2000/svg">
  <defs
     id="defs6">
    <clipPath
       clipPathUnits="userSpaceOnUse"
       id="clipPath114">
      <path
         d="m 1993.49,2001.95 c -5.35,5.36 -12.61,8.36 -20.17,8.36 h -89.91 c -7.91,0 -15.47,-3.28 -20.86,-9.06 -4.93,-5.29 -7.68,-12.25 -7.68,-19.47 v -172.32 c 0,-7.23 2.75,-14.19 7.68,-19.47 5.39,-5.79 12.95,-9.07 20.86,-9.07 h 89.91 c 7.56,0 14.82,3.01 20.17,8.36 l 0.58,0.57 c 5.35,5.35 8.35,12.61 8.35,20.18 v 171.17 c 0,7.57 -3,14.83 -8.35,20.18 z"
         id="path112" />
    </clipPath>
    <linearGradient
       x1="0"
       y1="0"
       x2="1"
       y2="0"
       gradientUnits="userSpaceOnUse"
       gradientTransform="matrix(0,-725.584,-725.584,0,1928.65,2500.35)"
       spreadMethod="pad"
       id="linearGradient120">
      <stop
         style="stop-opacity:1;stop-color:#c82128"
         offset="0"
         id="stop116" />
      <stop
         style="stop-opacity:1;stop-color:#f2521b"
         offset="1"
         id="stop118" />
    </linearGradient>
    <clipPath
       clipPathUnits="userSpaceOnUse"
       id="clipPath130">
      <path
         d="m 2249.43,2116.75 c 0,0 44.9,27.27 95.13,17.31 0,0 4.4,6.18 13.04,13.16 h -163.67 c 14.32,22.03 75.25,22.03 75.25,22.03 26.43,22.02 59.36,8.95 59.36,8.95 13.84,17.07 46.35,31.82 63.09,32.51 -79.87,262.43 -323.73,453.41 -612.26,453.41 -353.45,0 -639.98,-286.52 -639.98,-639.97 0,-0.2 0.02,-0.4 0.02,-0.6 8.32,6.36 27.85,17.53 56.96,11.4 24.61,-5.17 36.85,-21.89 36.85,-21.89 0,0 14.81,9.87 52.35,9.87 50.65,0 71.4,-26.31 71.4,-26.31 51.4,-2.06 66.48,-19.06 66.48,-19.06 h -43 c 22.67,-6.42 29.77,-16.3 29.77,-16.3 h -213.85 c 4.1,7.37 13.35,12.62 23.18,16.3 h -78.28 c 5.15,-71.47 21.84,-139.75 48.55,-202.8 4.47,1.52 9.11,2.37 13.85,2.37 6.12,0 12.06,-1.27 17.65,-3.77 l 30.76,-13.8 c 3.51,-1.57 7.25,-2.37 11.09,-2.37 1.65,0 3.29,0.15 4.92,0.45 l 28,5.17 c 1.99,0.37 4.01,0.59 6.03,0.7 l 68.79,3.45 1.68,0.03 c 8.58,0 17.11,-2.79 24.03,-7.84 l 9.33,-6.81 c 1.67,-1.21 3.64,-1.85 5.7,-1.85 l 18.76,0.64 c 9.39,0 18.74,-2.37 27.01,-6.85 l 11.29,-6.14 v 616.74 c 0,9.61 -7.79,17.4 -17.4,17.4 h -54.06 l 46.68,124.83 c 3.81,10.19 13.55,16.95 24.44,16.95 h 121.8 c 14.41,0 26.09,-11.68 26.09,-26.09 v -750.32 c 4.39,1.17 8.87,1.95 13.45,1.95 h 67.2 c 4.27,0 8.51,0.38 12.7,1.07 v 682.46 c 0,12.46 4.96,24.41 13.77,33.22 l 43.96,43.96 c 8.81,8.8 20.76,13.75 33.21,13.75 h 255.04 c 12.45,0 24.4,-4.95 33.21,-13.76 l 43.95,-43.95 c 8.81,-8.81 13.76,-20.75 13.76,-33.21 v -161.53 h -144.09 v 80.4 c 0,7.57 -3,14.83 -8.35,20.18 l -0.58,0.57 c -5.35,5.35 -12.61,8.36 -20.17,8.36 h -89.91 c -7.91,0 -15.47,-3.28 -20.86,-9.07 -4.93,-5.28 -7.68,-12.24 -7.68,-19.46 V 2152.1 h 199.88 c 12.99,0 25.46,-5.17 34.64,-14.35 l 42.77,-42.77 c 9.19,-9.19 14.35,-21.65 14.35,-34.64 v -312.78 c 0.18,-0.07 0.36,-0.09 0.54,-0.15 l 79.42,-30.27 c 4.93,-1.88 10.1,-2.83 15.36,-2.83 2.2,0 4.41,0.17 6.59,0.51 l 53.02,8.15 c 5.43,0.84 10.96,0.61 16.3,-0.66 l 23.05,-5.48 c 50.04,91.22 78.55,195.93 78.55,307.32 0,31.46 -2.38,62.36 -6.76,92.6 z"
         id="path128" />
    </clipPath>
    <linearGradient
       x1="0"
       y1="0"
       x2="1"
       y2="0"
       gradientUnits="userSpaceOnUse"
       gradientTransform="matrix(0,-725.584,-725.584,0,1779.36,2500.35)"
       spreadMethod="pad"
       id="linearGradient136">
      <stop
         style="stop-opacity:1;stop-color:#c82128"
         offset="0"
         id="stop132" />
      <stop
         style="stop-opacity:1;stop-color:#f2521b"
         offset="1"
         id="stop134" />
    </linearGradient>
  </defs>
  <sodipodi:namedview
     id="namedview4"
     pagecolor="#ffffff"
     bordercolor="#000000"
     borderopacity="0.25"
     inkscape:showpageshadow="2"
     inkscape:pageopacity="0.0"
     inkscape:pagecheckerboard="0"
     inkscape:deskcolor="#d1d1d1" />
  <g
     id="g8"
     inkscape:groupmode="layer"
     inkscape:label="ink_ext_XXXXXX"
     transform="matrix(1.3333333,0,0,-1.3333333,0,583.78667)">
    <g
       id="g10"
       transform="scale(0.1)">
      <path
         d="m 2642.04,531.109 c 483.66,296.399 784.11,832.921 784.11,1400.181 v 536.05 c 65.21,64.13 96.74,112.91 100.69,119.19 l 31.89,50.72 -20.06,56.45 c -3.47,9.75 -33.84,91.83 -112.52,206.56 v 412.01 l -96.28,65.81 c -5.09,3.47 -10.26,6.97 -15.51,10.51 v 355.02 l -98.67,58.28 c -21.01,12.41 -42.4,24.62 -64.45,36.8 v 180.89 l -64.75,35.05 c -7.37,3.99 -14.79,7.87 -22.2,11.79 -1023.72,513.98 -1925.64,279.13 -2366.767,96.99 -22.324,-9.56 -44.597,-19.21 -66.566,-29.33 -52.871,-24.31 -105.23,-50.46 -155.644,-77.73 l -64.758,-35.05 v -180.84 c -23.153,-12.75 -45.719,-25.62 -67.547,-38.51 l -98.653,-58.29 v -355 c -6.214,-4.17 -12.308,-8.31 -18.359,-12.44 l -93.433,-64.05 v -411.9 C 53.8672,2785.53 23.5,2703.43 20.0469,2693.68 L 0,2637.25 31.8594,2586.56 c 3.9531,-6.29 35.4765,-55.09 100.7036,-119.22 v -536.05 c 0,-567.25 300.453,-1103.77 784.093,-1400.181 L 1777.43,0"
         style="fill:#a21a1f;fill-opacity:1;fill-rule:nonzero;stroke:none"
         id="path12" />
      <path
         d="m 1151.62,749.449 -73.53,45.102 c -24.56,15.14 -48.66,30.898 -71.98,47.578"
         style="fill:#ffffff;fill-opacity:1;fill-rule:nonzero;stroke:none"
         id="path14" />
      <path
         d="m 2552.62,842.129 c -23.32,-16.68 -47.42,-32.438 -71.98,-47.578 l -73.68,-45.102"
         style="fill:#ffffff;fill-opacity:1;fill-rule:nonzero;stroke:none"
         id="path16" />
      <path
         d="m 3422.26,2636.81 c 0,0 -31,87.31 -119.69,208.61 -25.71,35.3 -56.41,73.5 -92.61,113.19 -170.99,187.81 -465.29,410.51 -952,529.6 0,0 189.9,-135.8 304.9,-293.7 l -155.68,-264.96 c -15.84,-1.91 -122.31,-24.64 -253.47,53.85 l -193.01,115.57 c -54.08,32.56 -116.07,49.76 -179.25,49.76 -63.19,0 -125.17,-17.2 -179.16,-49.69 L 1409.16,2983.4 c -62.05,-37.17 -133.11,-56.82 -205.49,-56.82 -14.24,0 -28.55,0.99 -42.75,2.52 l -165.057,280.92 c 115.007,157.9 304.907,293.69 304.907,293.69 -486.606,-119.09 -780.907,-341.69 -951.907,-529.49 -36.199,-39.8 -67,-78 -92.699,-113.3 -88.699,-121.3 -119.699,-208.6 -119.699,-208.6 0,0 36.543,-58.1 119.676,-131.16 v -589.87 c 0,-528.36 274.617,-1018.739 725.109,-1294.829 l 796.18,-487.93 2.42,-2.371 v 1.18 1.191 l 797.63,487.938 c 450.49,276.082 725.11,766.461 725.11,1294.821 v 574.37 c 83.13,73.05 119.67,131.15 119.67,131.15"
         style="fill:#140a06;fill-opacity:1;fill-rule:nonzero;stroke:none"
         id="path18" />
      <path
         d="m 348.816,2449.1 c 87.063,-59.98 203.391,-120.8 353.848,-163.08 0,0 29.496,178.64 170.484,377.46 0.075,-2.52 0.239,-5.04 0.559,-7.56 11.324,-88.63 -7.703,-179.69 -53.578,-256.38 L 704.551,2206.53 c -0.188,-0.31 -0.34,-0.63 -0.528,-0.95 l -22.242,6.17 c -91.504,25.64 -171.218,57.82 -240.269,92.82 v -373.32 c 5.152,-150.33 25.648,-403.35 162.051,-611.53 0,0 180.765,27.69 269.652,75.6 0,0 0.043,0.12 0.055,0.15 -0.012,-0.08 -0.016,-0.15 -0.028,-0.23 -3.027,-22.07 3.531,-44.24 17.988,-60.81 8.75,-10.03 19.84,-17.45 32.071,-21.9 -121.848,-81.02 -287.528,-95.94 -322.41,-101.75 -13.036,-2.17 -27.133,-12.2 -40.196,-24.67 -135.847,221.63 -211.879,479.49 -211.879,745.18 v 517.81"
         style="fill:#c8c7c7;fill-opacity:1;fill-rule:nonzero;stroke:none"
         id="path20" />
      <path
         d="m 2529.06,715.48 -750.38,-459.019 -749,459.019 C 928.98,777.199 837.547,851 756.543,934.18 c 2.148,-0.258 4.352,-0.649 6.422,-0.719 89.308,-2.781 125.363,39.527 125.363,39.527 l 180.012,176.862 -1.03,2.12 4.7,4.7 c 13.5,-24.14 38.7,-39.38 66.65,-39.38 3.49,0 7.08,0.24 10.73,0.74 17.92,2.45 36.19,3.69 54.28,3.69 72.38,0 143.44,-19.65 205.51,-56.82 l 193.01,-115.572 c 54.09,-32.558 116.07,-49.758 179.26,-49.758 63.18,0 125.17,17.2 179.17,49.7 l 193.08,115.63 c 62.11,37.16 133.22,56.8 205.63,56.8 16.92,0 33.99,-1.07 50.78,-3.23 3.4,-0.43 6.75,-0.64 10.01,-0.64 27.78,0 52.88,15.1 66.42,39.03 l 4.88,-4.89 -1.03,-2.12 180.01,-176.862 c 0,0 36.06,-42.308 125.36,-39.527 2.08,0.07 4.28,0.469 6.43,0.73 -81,-83.179 -172.43,-156.992 -273.13,-218.711"
         style="fill:#c8c7c7;fill-opacity:1;fill-rule:nonzero;stroke:none"
         id="path22" />
      <path
         d="m 3209.92,1931.29 c 0,-265.7 -76.03,-523.56 -211.88,-745.19 -13.07,12.48 -27.17,22.51 -40.2,24.68 -34.88,5.81 -200.56,20.73 -322.41,101.75 12.23,4.44 23.31,11.85 32.05,21.88 14.47,16.56 21.04,38.73 18.02,60.81 -0.01,0.1 -0.02,0.2 -0.03,0.3 0.02,-0.05 0.07,-0.2 0.07,-0.2 88.89,-47.91 269.65,-75.6 269.65,-75.6 136.4,208.18 156.9,461.2 162.05,611.53 v 373.32 c -69.05,-35 -148.76,-67.18 -240.27,-92.82 l -22.25,-6.17 c -0.17,0.28 -0.31,0.57 -0.48,0.85 l -115.62,193.11 c -40.81,68.22 -68.22,131.6 -54.26,250.18 142.06,-199.52 171.7,-379.21 171.7,-379.21 150.46,42.29 266.79,103.11 353.86,163.09 v -502.31"
         style="fill:#c8c7c7;fill-opacity:1;fill-rule:nonzero;stroke:none"
         id="path24" />
      <path
         d="M 1261.09,1421.76 C 1043.63,1233.6 848.844,1083.92 807.91,1059.82 c -51.972,-30.6 -183.863,77.74 -214.816,108.66 -1.516,-1.43 -3.125,-3.02 -4.852,-4.79 -10.332,-10.64 -10.133,-27.71 0.196,-38.35 92.05,-94.81 152.316,-129.32 175.964,-130.059 2.348,-0.082 4.649,-0.109 6.911,-0.109 58.105,0 81.66,23.388 81.75,23.388 l 0.261,0.51 407.766,402.69"
         style="fill:#ffffff;fill-opacity:1;fill-rule:nonzero;stroke:none"
         id="path26" />
      <path
         d="m 1623.5,3056.59 -193.1,-115.63 c -87.42,-52.3 -188.99,-72.85 -288.02,-60.2 -26.09,3.34 -41.44,-28.44 -22.87,-47.07 l 255.56,-256.25 c 113.67,83.49 253.82,132.95 405.35,132.95 150.48,0 289.72,-48.81 402.97,-131.26 l 255.77,255.08 c 18.76,18.71 3.13,50.67 -23.12,47.07 -100.27,-13.73 -203.37,6.69 -291.85,59.68 l -193.1,115.63 c -94.58,56.91 -213.01,56.91 -307.59,0"
         style="fill:#1a3476;fill-opacity:1;fill-rule:nonzero;stroke:none"
         id="path28" />
      <path
         d="m 2811.87,2181.07 -115.63,193.1 c -52.3,87.42 -72.85,188.99 -60.19,288.02 3.33,26.08 -28.45,41.44 -47.07,22.87 L 2332.73,2429.5 c -41.68,56.74 -91.84,106.83 -148.63,148.45 -16.83,12.33 -34.21,23.96 -52.16,34.75 -33.74,20.29 -69.4,37.67 -106.58,51.99 -13.57,5.23 -27.28,10.19 -41.25,14.56 -29.5,9.24 -59.89,16.39 -90.93,21.6 -20.29,3.4 -40.89,5.86 -61.73,7.43 -17.22,1.3 -34.55,2.18 -52.09,2.18 -17.24,0 -34.28,-0.86 -51.2,-2.11 -20.86,-1.55 -41.47,-3.97 -61.77,-7.35 -31.06,-5.17 -61.48,-12.28 -90.99,-21.48 -14,-4.37 -27.73,-9.33 -41.33,-14.55 -37.21,-14.29 -72.89,-31.65 -106.67,-51.91 -17.75,-10.65 -34.95,-22.13 -51.62,-34.3 -57.62,-42.04 -108.44,-92.79 -150.55,-150.36 l -255.472,254.78 c -18.621,18.57 -50.403,3.22 -47.067,-22.87 12.657,-99.02 -7.894,-200.59 -60.195,-288.01 L 746.867,2179.19 c -56.914,-94.58 -56.914,-213 0,-307.58 L 862.496,1678.5 c 52.988,-88.48 73.41,-191.58 59.676,-291.85 -3.598,-26.25 28.359,-41.88 47.066,-23.12 l 255.862,256.55 c 42.13,-57.64 93,-108.46 150.68,-150.54 l -256.21,-255.52 c -18.76,-18.71 -3.13,-50.66 23.12,-47.07 30.09,4.12 60.4,4.79 90.53,2.8 l 0.05,-0.03 c 47.39,-3.1 94.3,-13.6 138.9,-31.6 l -0.02,-0.04 c 21.39,-8.65 42.31,-18.77 62.39,-30.8 l 6.42,-3.84 -81.49,-213.221 163.69,-94.5 -184.5,-106.5 127.71,-221.098 184.5,106.5 V 361.52 h 255.29 v 213.101 l 184.5,-106.5 127.61,221.098 -184.51,106.5 169.4,97.801 -81.89,209.53 7.07,4.23 c 19.34,11.57 39.46,21.32 60,29.77 l 0.03,-0.03 c 44.4,18.3 91.1,29.1 138.39,32.5 l 0.02,0.03 c 29.8,2.16 59.79,1.73 89.57,-2.08 26.09,-3.33 41.44,28.45 22.87,47.07 l -255.12,255.81 c 57.57,42.19 108.3,93.12 150.32,150.83 l 255.08,-255.77 c 18.71,-18.76 50.67,-3.13 47.07,23.12 -13.74,100.27 6.68,203.37 59.67,291.85 l 115.63,193.1 c 56.92,94.58 56.92,213.01 0,307.59"
         style="fill:#ffffff;fill-opacity:1;fill-rule:nonzero;stroke:none"
         id="path30" />
      <path
         d="m 1110.99,1654.68 -128.388,-62.5 -18.614,6.43 -25.156,51.68 6.426,18.61 31.695,15.42 12.481,-25.63 -16.153,-7.86 -1.554,-4.5 9.433,-19.39 4.504,-1.55 97.306,47.36 1.55,4.5 -9.43,19.39 -4.5,1.55 -16.15,-7.86 -12.48,25.63 31.69,15.43 18.61,-6.42 25.16,-51.68 -6.43,-18.61"
         style="fill:#231f20;fill-opacity:1;fill-rule:nonzero;stroke:none"
         id="path32" />
      <path
         d="m 1041.61,1825.27 17.59,-8.83 18.08,-54.57 -8.83,-17.6 -148.786,-49.31 -8.976,27.07 132.802,44.01 2,3.98 -6.93,20.89 -3.97,2 -132.805,-44.02 -8.969,27.07 148.794,49.31"
         style="fill:#231f20;fill-opacity:1;fill-rule:nonzero;stroke:none"
         id="path34" />
      <path
         d="m 1036.41,1920.92 15.07,-76.89 -167.453,-32.82 -5.527,28.2 140.35,27.51 -9.54,48.69 27.1,5.31"
         style="fill:#231f20;fill-opacity:1;fill-rule:nonzero;stroke:none"
         id="path36" />
      <path
         d="m 937.695,1976.87 -3.597,3.13 -42.11,-2.96 -2.902,-3.58 1.809,-25.76 48.609,3.41 z m 97.655,-47.61 -170.237,-11.96 -5.074,72.36 12.91,14.86 76.16,5.34 14.864,-12.91 3.082,-43.91 66.305,4.66 1.99,-28.44"
         style="fill:#231f20;fill-opacity:1;fill-rule:nonzero;stroke:none"
         id="path38" />
      <path
         d="m 1029.56,2027.15 -170.349,9.39 4.496,81.59 27.566,-1.52 -2.925,-53.13 42.367,-2.33 2.172,39.45 27.574,-1.52 -2.18,-39.44 45.279,-2.5 2.93,53.12 27.57,-1.52 -4.5,-81.59"
         style="fill:#231f20;fill-opacity:1;fill-rule:nonzero;stroke:none"
         id="path40" />
      <path
         d="m 952.809,2190.52 -2.704,3.92 -41.511,7.66 -3.703,-2.74 -4.68,-25.4 47.91,-8.84 z m 82.651,-70.5 -167.804,30.95 13.16,71.33 16.215,11.16 75.067,-13.85 11.164,-16.22 -7.985,-43.28 65.353,-12.06 -5.17,-28.03"
         style="fill:#231f20;fill-opacity:1;fill-rule:nonzero;stroke:none"
         id="path42" />
      <path
         d="m 1054.3,2216 -162.464,52.42 25.102,77.82 26.292,-8.49 -16.339,-50.66 40.398,-13.04 12.141,37.63 26.29,-8.48 -12.134,-37.63 43.184,-13.93 16.34,50.66 26.3,-8.48 -25.11,-77.82"
         style="fill:#231f20;fill-opacity:1;fill-rule:nonzero;stroke:none"
         id="path44" />
      <path
         d="m 1022.36,2394.93 -1.7,4.28 -38.156,18.07 -4.184,-1.49 -11.73,-24.76 44.04,-20.86 z m 61.09,-90.81 -154.231,73.05 31.527,66.57 18.547,6.62 68.997,-32.68 6.62,-18.54 66.03,-15.88 -12.01,-25.36 -66.03,15.87 -7.31,-15.42 60.07,-28.46 -12.21,-25.77"
         style="fill:#231f20;fill-opacity:1;fill-rule:nonzero;stroke:none"
         id="path46" />
      <path
         d="m 2479.74,2290 -13.79,33.66 145.85,94.23 10.82,-26.4 -109.25,-68.06 125.59,28.16 10.82,-26.39 -170.04,-35.2"
         style="fill:#231f20;fill-opacity:1;fill-rule:nonzero;stroke:none"
         id="path48" />
      <path
         d="m 2494.85,2246.14 163.86,47.55 7.95,-27.38 -163.87,-47.55 -7.94,27.38"
         style="fill:#231f20;fill-opacity:1;fill-rule:nonzero;stroke:none"
         id="path50" />
      <path
         d="m 2611.57,2159.08 3.87,-2.51 41.56,7.34 2.55,3.65 -4.77,26.97 -47.97,-8.47 z m -102.36,38.69 168.04,29.69 12.81,-72.53 -11.29,-16.12 -75.18,-13.29 -16.12,11.28 -63.03,-25.26 -4.88,27.64 63.03,25.27 -2.97,16.8 -65.45,-11.57 -4.96,28.09"
         style="fill:#231f20;fill-opacity:1;fill-rule:nonzero;stroke:none"
         id="path52" />
      <path
         d="m 2540.09,2094.59 142.75,5.05 14.41,-13.43 2.11,-59.47 -13.43,-14.42 -35.25,-1.24 -1,28.51 18.63,0.65 3.25,3.26 -0.83,23.57 -3.48,3.25 -108.86,-3.85 -3.25,-3.48 0.83,-23.57 3.47,-3.03 34.12,1.2 -0.48,13.93 28.05,0.99 1.5,-42.42 -79.46,-2.82 -14.41,13.43 -2.1,59.48 13.43,14.41"
         style="fill:#231f20;fill-opacity:1;fill-rule:nonzero;stroke:none"
         id="path54" />
      <path
         d="m 2527.33,1985.92 170.24,-11.72 -1.96,-28.45 -170.24,11.71 1.96,28.46"
         style="fill:#231f20;fill-opacity:1;fill-rule:nonzero;stroke:none"
         id="path56" />
      <path
         d="m 2524.62,1936.12 167.92,-30.73 -5.54,-30.28 -109.64,-17.6 102.96,-18.85 -5.13,-28.06 -167.92,30.74 5.54,30.26 109.63,17.62 -102.96,18.83 5.14,28.07"
         style="fill:#231f20;fill-opacity:1;fill-rule:nonzero;stroke:none"
         id="path58" />
      <path
         d="m 2500.36,1820.89 163.28,-49.52 -8.27,-27.28 -163.28,49.51 8.27,27.29"
         style="fill:#231f20;fill-opacity:1;fill-rule:nonzero;stroke:none"
         id="path60" />
      <path
         d="m 2522.34,1693.19 57.52,-11.8 -48.1,33.67 z m -27.59,5.76 13.85,32.19 -30.81,21.58 11.55,26.82 140.8,-104.63 -11.02,-25.58 -172.76,30.35 11.54,26.83 36.85,-7.56"
         style="fill:#231f20;fill-opacity:1;fill-rule:nonzero;stroke:none"
         id="path62" />
      <path
         d="m 1779.37,1384.18 c 153.22,0 293.82,53.91 404,143.72 h -808.01 c 110.18,-89.81 250.78,-143.72 404.01,-143.72"
         style="fill:#506bbd;fill-opacity:1;fill-rule:nonzero;stroke:none"
         id="path64" />
      <path
         d="m 2300.55,1705.58 -49.53,-7.62 c -0.22,-0.04 -0.44,0.01 -0.66,-0.02 -14.85,-2.31 -45.61,-7.19 -48.21,-8.45 -13.95,-6.78 -44.82,-20.32 -44.82,-20.32 0,0 23.9,26.53 34.06,29.99 3.58,1.23 10.94,3.49 18.92,5.89 l -69.32,26.42 c -4.48,1.71 -9.3,2.36 -14.08,1.91 l -56.42,-5.31 c -5.6,-0.53 -10.97,-2.48 -15.6,-5.68 l -21.11,-14.57 c -5.24,-3.62 -11.15,-6.17 -17.37,-7.49 l -80.73,-19.68 c -10.05,-2.14 -19.57,-6.29 -27.98,-12.19 l -42.14,-36.74 h 10.45 212.11 196.59 c 17.21,22.12 32.98,45.38 47.21,69.69 l -14.7,3.49 c -5.46,1.3 -11.12,1.53 -16.67,0.68"
         style="fill:#292057;fill-opacity:1;fill-rule:nonzero;stroke:none"
         id="path66" />
      <path
         d="m 1538.9,1647.25 c 0,0 58.94,31.77 79.32,41.94 3.99,1.99 8.14,3.32 12.54,4.05 13.26,2.2 45.99,7.65 62.39,10.49 6.85,1.19 13.8,0.71 20.42,-1.37 l 11.02,-3.45 h 17.61 c 8.23,0 16.03,-3.67 21.28,-10 l 49.02,-41.66 h 45.91 l 38.68,34.59 0.81,0.57 c 10.34,7.27 21.85,12.28 34.23,14.92 l 51.32,12.51 -62.21,6.28 -57.32,3.55 c -4.53,0.28 -8.99,1.21 -13.26,2.74 l -29.85,10.75 c -10.04,3.62 -20.68,5.34 -31.35,5.08 l -32.97,-0.79 c -3.8,-0.09 -7.57,-0.78 -11.17,-2.03 l -17.56,-6.13 c -9.92,-3.46 -20.35,-5.22 -30.86,-5.22 h -67.19 c -4.24,0 -8.45,-0.73 -12.44,-2.15 L 1600.7,1716 c -9.61,-3.42 -19.75,-5.11 -29.95,-4.98 l -76.05,0.99 c -7,0.09 -13.87,1.89 -20.03,5.23 l -24.64,13.38 c -6.46,3.51 -13.75,5.22 -21.11,4.96 l -16.35,-0.6 c -5.64,-0.21 -11.19,1.49 -15.75,4.81 l -9.36,6.82 c -4.68,3.41 -10.38,5.11 -16.16,4.82 l -68.39,-3.43 c -1.34,-0.06 -2.68,-0.22 -4.01,-0.46 l -12.65,-2.34 32.92,-17.11 c 6.35,-3.3 13.26,-5.38 20.38,-6.12 l 28.36,-2.96 -35.28,-7.37 c -6.95,-1.45 -14.19,-0.6 -20.61,2.44 l -66.3,31.32 -30.75,13.78 c -5.88,2.64 -12.43,2.78 -18.6,1.08 18.16,-40.04 40.25,-77.88 65.9,-113.01 h 276.63"
         style="fill:#292057;fill-opacity:1;fill-rule:nonzero;stroke:none"
         id="path68" />
      <path
         d="m 1949.94,1612.59 h -159.08 c 14.54,6.88 29.86,11.78 45.53,14.96 l 4.66,4.17 h -34.27 -54.97 c 0,0 30.2,9.18 39.56,12.23 0.21,0.06 0.54,0.13 0.79,0.2 l -39.77,33.81 -0.86,1.03 c -2.31,2.78 -5.7,4.38 -9.32,4.38 h -20 l -13.29,4.19 c -2.73,0.84 -5.54,1.28 -8.36,1.28 -1.59,0 -3.17,-0.13 -4.76,-0.41 -16.42,-2.84 -49.23,-8.3 -62.48,-10.5 -2.93,-0.49 -5.6,-1.35 -8.16,-2.62 -11.48,-5.74 -35.67,-18.58 -54.26,-28.52 19.98,-1.51 39.58,-6.46 57.76,-15.07 h -85.83 -146.99 -121.82 c 24.84,-31.94 52.61,-61.44 82.95,-88.14 h 844.79 c 19.22,16.91 37.46,34.9 54.53,53.97 h -348.05 c 13.43,6.36 27.45,11.14 41.7,15.04"
         style="fill:#3d3084;fill-opacity:1;fill-rule:nonzero;stroke:none"
         id="path70" />
      <path
         d="m 2164.7,907.012 c -17.48,44.726 -43.87,112.298 -71.2,182.258 L 1875.2,963.238 V 1198.94 H 1681.75 V 963.238 l -214.02,123.562 -69.96,-182.972 187.26,-108.117 -204.12,-117.852 93.88,-163.64 206.96,113.961 v -235.7 h 193.45 v 235.7 l 207.87,-113.961 92.97,163.64 -204.12,117.852 192.78,111.301"
         style="fill:#1a3476;fill-opacity:1;fill-rule:nonzero;stroke:none"
         id="path72" />
      <path
         d="m 1797.14,470.551 1.36,58.558 c 4.67,-4.218 9.35,-11.32 11.16,-22.488 2.42,-15.851 -4.67,-28.832 -12.52,-36.07"
         style="fill:#ffffff;fill-opacity:1;fill-rule:nonzero;stroke:none"
         id="path74" />
      <path
         d="m 1807.24,900.668 -1.06,-45.039 c 2.89,-4.891 4.02,-10.348 1.6,-17.231 -11.43,-25.828 -50.46,-45.617 -64.81,-73.019 -11.38,-17.328 -8.65,-38.981 0.83,-56.309 2.09,-3.82 7.83,-3.351 9.26,0.77 4.44,12.769 16.11,31.801 66.24,70.699 44.19,35.602 27.82,92.449 -12.06,120.129"
         style="fill:#ffffff;fill-opacity:1;fill-rule:nonzero;stroke:none"
         id="path76" />
      <path
         d="m 1790.36,662.461 1.9,80.508 c -16.61,-15.59 -23.54,-25.688 -26.8,-32.668 l 1.73,-73.539 c 12.83,11.136 20.53,19.648 23.17,25.699"
         style="fill:#ffffff;fill-opacity:1;fill-rule:nonzero;stroke:none"
         id="path78" />
      <path
         d="m 1769.34,545.262 v 0 l 2.07,-87.703 c 0.09,-4.047 3.23,-7.27 7.07,-7.27 3.83,0 6.97,3.223 7.06,7.27 l 2.98,126.32 c -10.22,-10.84 -19.58,-24.629 -19.18,-38.617"
         style="fill:#ffffff;fill-opacity:1;fill-rule:nonzero;stroke:none"
         id="path80" />
      <path
         d="m 1806.74,614.359 c 34.07,28.969 24.04,71.403 -3.99,93.711 l -0.86,-36.66 c 1.2,-3.531 1.32,-7.23 -0.15,-11.41 -3.39,-9.691 -14.49,-21.84 -36.61,-39.82 -24.49,-19.93 -25.71,-48.379 -9.43,-71.621 1.36,-1.938 4.4,-1.09 4.33,1.281 -1.02,34.672 38.52,57.551 46.71,64.519"
         style="fill:#ffffff;fill-opacity:1;fill-rule:nonzero;stroke:none"
         id="path82" />
      <path
         d="m 1762.77,1071.12 c 13.72,0 26.44,-4.8 36.9,-13.41 l 1.13,48.43 c 0.28,13.2 -9.8,24.05 -22.32,24.05 -12.53,0 -22.61,-10.85 -22.33,-24.05 l 0.83,-35.42 c 1.92,0.18 3.84,0.4 5.79,0.4"
         style="fill:#ffffff;fill-opacity:1;fill-rule:nonzero;stroke:none"
         id="path84" />
      <path
         d="m 1767.08,1001.47 -1.01,-0.14 -1.02,0.04 c -0.16,0 -3.01,-0.15 -6.41,-1.2 l 4.57,-194.42 c 1.69,1.531 3.37,3.07 5.05,4.57 10.62,9.489 20.46,18.539 26.24,27.711 l 0.34,14.52 -0.06,0.097 0.99,41.614 c 0,0.09 0.05,0.156 0.06,0.25 l 2.72,115.788 c -7.69,-3.96 -18.14,-6.88 -31.47,-8.83"
         style="fill:#ffffff;fill-opacity:1;fill-rule:nonzero;stroke:none"
         id="path86" />
      <path
         d="m 1761.01,1046.73 c 0,0 11.28,7.06 22.55,-3.92 0,0 -12.51,-11.42 -22.55,3.92 z m 38.02,-3.96 c -22.77,26.77 -63.52,21.28 -83.81,-11.28 -31.04,-49.791 -9.28,-112.002 34.76,-143.799 l -1.15,48.879 c -8.22,11.578 -14.25,24.18 -15,36.93 -2.38,40.41 31.63,39.16 31.63,39.16 37.45,5.46 43.99,17.86 33.57,30.11"
         style="fill:#ffffff;fill-opacity:1;fill-rule:nonzero;stroke:none"
         id="path88" />
      <path
         d="m 2297.64,1421.76 c 217.46,-188.16 412.25,-337.84 453.18,-361.94 51.97,-30.6 183.86,77.74 214.82,108.66 1.51,-1.43 3.12,-3.02 4.85,-4.79 10.33,-10.64 10.13,-27.71 -0.2,-38.35 -92.05,-94.81 -152.32,-129.32 -175.96,-130.059 -2.35,-0.082 -4.65,-0.109 -6.91,-0.109 -58.11,0 -81.66,23.388 -81.75,23.388 l -0.27,0.51 -407.76,402.69"
         style="fill:#ffffff;fill-opacity:1;fill-rule:nonzero;stroke:none"
         id="path90" />
      <path
         d="m 999.082,3918.96 c 0,-28.83 -18.684,-54.09 -46.059,-63.16 -91.57,-30.33 -181.914,-65.89 -270.441,-106.78 v 125.73 c 94.367,43.59 190.793,81.12 288.574,112.72 13.778,4.45 27.926,-5.98 27.926,-20.46 z M 534.141,3419.32 c -29.911,-16.08 -59.555,-32.85 -88.973,-50.17 v 259.91 c 29.379,17.36 59.074,33.94 88.973,49.98 z m 523.969,741.54 c -19.72,-5.64 -39.39,-11.52 -59.028,-17.65 -107.352,-33.36 -213.164,-73.83 -316.5,-121.41 -50.047,-23.01 -99.629,-47.73 -148.441,-74.14 v -181.3 C 490.816,3743.95 448,3720.44 405.879,3695.55 l -37.945,-22.41 v -351.38 c -24.2,-15.42 -48.27,-31.14 -72.071,-47.44 l -39.699,-27.3 v -386.1 c 25.699,35.3 56.5,73.5 92.699,113.3 v 224 c 97.801,67 199.602,126.7 304.5,178.9 17.801,8.9 29.203,26.9 29.203,46.9 v 36.93 c 0.004,0.01 0.012,0.01 0.016,0.01 v 169.43 c 89.055,41 179.941,76.83 272.074,107.31 21.887,7.24 44.426,-9.36 44.426,-32.41 v -187.33 c 52.308,16.95 105.148,32.15 158.478,45.64 v 205.35 c 0,16.12 -4.69,31.91 -13.52,45.41 l -24.43,37.39 27.54,47.97 c 6.82,11.89 10.41,25.37 10.41,39.08 v 146.36 c 0,51.88 -49.56,89.96 -99.45,75.7"
         style="fill:#ffffff;fill-opacity:1;fill-rule:nonzero;stroke:none"
         id="path92" />
      <path
         d="m 1365.48,3738.08 v 124.06 c 94.41,15.17 194.1,24.65 292.32,29.32 l -64.27,114.03 c -76.23,-5.41 -152.34,-13.79 -228.05,-25.88 v 102.44 c 108.5,17.47 217.92,27.75 327.34,31.23 l -73.69,143.59 c -84.86,-5.13 -169.56,-14.32 -253.65,-27.92 -34.45,-5.36 -68.83,-11.5 -103.08,-18.38 -28.21,-5.67 -48.3,-30.8 -48.3,-59.57 v -478.96 -50.08 c 0,-22.8 21,-39.54 43.31,-34.85 170.35,35.75 345.05,53.99 521.9,53.99 19.13,0 38.18,-0.64 57.26,-1.07 l -65.45,131.23 c -242.36,-5.81 -362.47,-24.63 -405.64,-33.18"
         style="fill:#ffffff;fill-opacity:1;fill-rule:nonzero;stroke:none"
         id="path94" />
      <path
         d="m 3113.56,3369.05 c -28.4,16.73 -57.02,32.91 -85.88,48.49 v 259.8 c 28.85,-15.54 57.51,-31.58 85.88,-48.34 z m -234.32,378.58 c -107.66,49.74 -217.95,91.91 -329.94,126.2 l 30.43,59.16 14.6,28.48 c 5.98,11.67 19.66,17.29 32.07,13.07 85.58,-29.13 170.07,-62.85 252.84,-101.18 z m 380.93,-471.61 c -22.92,15.67 -46.09,30.78 -69.37,45.62 v 351.44 l -37.96,22.42 c -41.11,24.29 -82.9,47.23 -125.16,69.16 v 181.3 c -48.81,26.42 -98.39,51.29 -148.44,74.3 -69.2,31.97 -139.48,60.7 -210.54,86.19 -14.44,5.26 -33.31,11.67 -52.67,18.07 -52.96,17.49 -110.6,-5.72 -136.85,-54.71 l -240.76,-471.22 c 51.1,-9.38 101.94,-19.92 152.26,-32.42 l 105.64,204.47 c 130.21,-36.91 258.27,-84.18 382.92,-141.8 v -182.58 c 0.01,-0.01 0.02,-0.01 0.02,-0.01 v -23.73 c 0,-20 11.3,-38 29.2,-46.9 103.1,-51.5 203.1,-110.3 299.4,-176.1 l 2.1,-1.4 v -239.64 c 36.2,-39.7 66.9,-77.9 92.61,-113.2 v 401.74 l -42.4,29"
         style="fill:#ffffff;fill-opacity:1;fill-rule:nonzero;stroke:none"
         id="path96" />
      <path
         d="m 2404.26,4186.46 c -15.52,3.82 -31.05,7.44 -46.6,10.9 -21.46,4.76 -43.41,-5.91 -53.29,-25.55 l -205.23,-405.75 -232.11,469.16 c -8.09,15.74 -24.14,25.94 -41.84,26.25 -14.76,0.26 -29.56,0.37 -44.36,0.37 -31.35,0 -62.71,-0.61 -94.07,-1.7 l 329.48,-630.52 c 52.45,-4.89 104.53,-11.72 156.34,-19.82 l 291.61,561.22 c -19.93,5.41 -39.85,10.5 -59.93,15.44"
         style="fill:#ffffff;fill-opacity:1;fill-rule:nonzero;stroke:none"
         id="path98" />
      <path
         d="m 1072.45,2957.9 c -6.74,-5.61 -13.66,-11.23 -20.77,-16.47 -189.379,-149.89 -328.039,-354.23 -396.528,-584.58 -90.757,32 -294.539,120.13 -448.168,305.95 9.356,20.96 26.383,55.58 53.516,99.18 97.867,157.18 327.473,431.33 804.27,605.92 -67.172,-68.12 -142.399,-154.76 -142.399,-154.76 L 1072.45,2957.9"
         style="fill:#c8c7c7;fill-opacity:1;fill-rule:nonzero;stroke:none"
         id="path100" />
      <path
         d="M 1051.68,2941.43 C 862.301,2791.54 723.641,2587.2 655.152,2356.85 c -90.757,32 -294.539,120.13 -448.168,305.95 9.356,20.96 26.383,55.58 53.516,99.18 0,0 496.637,-44.54 791.18,179.45"
         style="fill:#c82128;fill-opacity:1;fill-rule:nonzero;stroke:none"
         id="path102" />
      <path
         d="m 2486.28,2957.9 c 6.74,-5.61 13.66,-11.23 20.77,-16.47 189.38,-149.89 328.04,-354.23 396.53,-584.58 90.75,32 294.54,120.13 448.17,305.95 -9.36,20.96 -26.39,55.58 -53.52,99.18 -97.87,157.18 -327.47,431.33 -804.27,605.92 67.17,-68.12 142.4,-154.76 142.4,-154.76 L 2486.28,2957.9"
         style="fill:#c8c7c7;fill-opacity:1;fill-rule:nonzero;stroke:none"
         id="path104" />
      <path
         d="m 2507.05,2941.43 c 189.38,-149.89 328.04,-354.23 396.53,-584.58 90.75,32 294.54,120.13 448.17,305.95 -9.36,20.96 -26.39,55.58 -53.52,99.18 0,0 -496.64,-44.54 -791.18,179.45"
         style="fill:#c82128;fill-opacity:1;fill-rule:nonzero;stroke:none"
         id="path106" />
      <g
         id="g108">
        <g
           id="g110"
           clip-path="url(#clipPath114)">
          <path
             d="m 1993.49,2001.95 c -5.35,5.36 -12.61,8.36 -20.17,8.36 h -89.91 c -7.91,0 -15.47,-3.28 -20.86,-9.06 -4.93,-5.29 -7.68,-12.25 -7.68,-19.47 v -172.32 c 0,-7.23 2.75,-14.19 7.68,-19.47 5.39,-5.79 12.95,-9.07 20.86,-9.07 h 89.91 c 7.56,0 14.82,3.01 20.17,8.36 l 0.58,0.57 c 5.35,5.35 8.35,12.61 8.35,20.18 v 171.17 c 0,7.57 -3,14.83 -8.35,20.18 l -0.58,0.57"
             style="fill:url(#linearGradient120);fill-opacity:1;fill-rule:nonzero;stroke:none"
             id="path122" />
        </g>
      </g>
      <g
         id="g124">
        <g
           id="g126"
           clip-path="url(#clipPath130)">
          <path
             d="m 2249.43,2116.75 c 0,0 44.9,27.27 95.13,17.31 0,0 4.4,6.18 13.04,13.16 h -163.67 c 14.32,22.03 75.25,22.03 75.25,22.03 26.43,22.02 59.36,8.95 59.36,8.95 13.84,17.07 46.35,31.82 63.09,32.51 -79.87,262.43 -323.73,453.41 -612.26,453.41 -353.45,0 -639.98,-286.52 -639.98,-639.97 0,-0.2 0.02,-0.4 0.02,-0.6 8.32,6.36 27.85,17.53 56.96,11.4 24.61,-5.17 36.85,-21.89 36.85,-21.89 0,0 14.81,9.87 52.35,9.87 50.65,0 71.4,-26.31 71.4,-26.31 51.4,-2.06 66.48,-19.06 66.48,-19.06 h -43 c 22.67,-6.42 29.77,-16.3 29.77,-16.3 h -213.85 c 4.1,7.37 13.35,12.62 23.18,16.3 h -78.28 c 5.15,-71.47 21.84,-139.75 48.55,-202.8 4.47,1.52 9.11,2.37 13.85,2.37 6.12,0 12.06,-1.27 17.65,-3.77 l 30.76,-13.8 c 3.51,-1.57 7.25,-2.37 11.09,-2.37 1.65,0 3.29,0.15 4.92,0.45 l 28,5.17 c 1.99,0.37 4.01,0.59 6.03,0.7 l 68.79,3.45 1.68,0.03 c 8.58,0 17.11,-2.79 24.03,-7.84 l 9.33,-6.81 c 1.67,-1.21 3.64,-1.85 5.7,-1.85 l 18.76,0.64 c 9.39,0 18.74,-2.37 27.01,-6.85 l 11.29,-6.14 v 616.74 c 0,9.61 -7.79,17.4 -17.4,17.4 h -54.06 l 46.68,124.83 c 3.81,10.19 13.55,16.95 24.44,16.95 h 121.8 c 14.41,0 26.09,-11.68 26.09,-26.09 v -750.32 c 4.39,1.17 8.87,1.95 13.45,1.95 h 67.2 c 4.27,0 8.51,0.38 12.7,1.07 v 682.46 c 0,12.46 4.96,24.41 13.77,33.22 l 43.96,43.96 c 8.81,8.8 20.76,13.75 33.21,13.75 h 255.04 c 12.45,0 24.4,-4.95 33.21,-13.76 l 43.95,-43.95 c 8.81,-8.81 13.76,-20.75 13.76,-33.21 v -161.53 h -144.09 v 80.4 c 0,7.57 -3,14.83 -8.35,20.18 l -0.58,0.57 c -5.35,5.35 -12.61,8.36 -20.17,8.36 h -89.91 c -7.91,0 -15.47,-3.28 -20.86,-9.07 -4.93,-5.28 -7.68,-12.24 -7.68,-19.46 V 2152.1 h 199.88 c 12.99,0 25.46,-5.17 34.64,-14.35 l 42.77,-42.77 c 9.19,-9.19 14.35,-21.65 14.35,-34.64 v -312.78 c 0.18,-0.07 0.36,-0.09 0.54,-0.15 l 79.42,-30.27 c 4.93,-1.88 10.1,-2.83 15.36,-2.83 2.2,0 4.41,0.17 6.59,0.51 l 53.02,8.15 c 5.43,0.84 10.96,0.61 16.3,-0.66 l 23.05,-5.48 c 50.04,91.22 78.55,195.93 78.55,307.32 0,31.46 -2.38,62.36 -6.76,92.6 h -163.15"
             style="fill:url(#linearGradient136);fill-opacity:1;fill-rule:nonzero;stroke:none"
             id="path138" />
        </g>
      </g>
      <path
         d="m 1810.93,2924.88 -31.57,97.14 -31.56,-97.14 h -102.14 l 82.64,-60.04 -31.57,-97.14 82.63,60.04 82.64,-60.04 -31.57,97.14 82.64,60.04 h -102.14"
         style="fill:#ffffff;fill-opacity:1;fill-rule:nonzero;stroke:none"
         id="path140" />
      <path
         d="m 1450.44,2818.84 -24.7,76.02 -24.71,-76.02 h -79.93 l 64.67,-46.98 -24.7,-76.03 64.67,46.99 64.66,-46.99 -24.7,76.03 64.67,46.98 h -79.93"
         style="fill:#ffffff;fill-opacity:1;fill-rule:nonzero;stroke:none"
         id="path142" />
      <path
         d="m 2237.63,2808.33 h -79.93 l -24.71,76.03 -24.7,-76.03 h -79.93 l 64.67,-46.98 -24.7,-76.02 64.66,46.98 64.67,-46.98 -24.7,76.02 64.67,46.98"
         style="fill:#ffffff;fill-opacity:1;fill-rule:nonzero;stroke:none"
         id="path144" />
      <path
         d="m 1228.6,3138.36 c 0,75.87 0,151.76 0,227.64 35.42,10.39 71.11,19.75 107.03,28.07 0,-12.28 0,-24.56 0,-36.83 -23.38,-5.42 -46.67,-11.28 -69.85,-17.58 0,-18.87 0,-37.74 0,-56.61 17.21,4.68 34.5,9.11 51.83,13.3 0,-12.28 0,-24.56 0,-36.84 -17.34,-4.18 -34.61,-8.63 -51.83,-13.3 0,-20.17 0,-40.34 0,-60.51 23.18,6.3 46.47,12.15 69.85,17.58 0,-12.28 0,-24.56 0,-36.84 -35.92,-8.33 -71.61,-17.69 -107.03,-28.08"
         style="fill:#140a06;fill-opacity:1;fill-rule:nonzero;stroke:none"
         id="path146" />
      <path
         d="m 1446.02,3350.7 c 0,7.99 0,15.98 0,23.97 -1.5,1.24 -3,2.47 -4.5,3.7 -9.66,-1.68 -19.33,-3.43 -28.97,-5.26 -1.49,-1.77 -2.99,-3.55 -4.48,-5.33 0,-15.77 0,-31.55 0,-47.33 1.49,-1.21 2.99,-2.42 4.48,-3.64 17.7,3.35 35.44,6.46 53.21,9.32 6.2,-5.19 12.4,-10.41 18.61,-15.67 0,-32.35 0,-64.7 0,-97.05 -6.21,-7.13 -12.41,-14.28 -18.61,-21.47 -25.76,-4.14 -51.45,-8.81 -77.05,-13.98 -6.15,4.94 -12.31,9.86 -18.45,14.73 0,15.68 0,31.36 0,47.04 12.58,2.68 25.18,5.22 37.81,7.64 0,-8.08 0,-16.18 0,-24.26 1.49,-1.22 2.99,-2.43 4.48,-3.65 9.64,1.83 19.3,3.59 28.97,5.27 1.51,1.76 3,3.51 4.5,5.27 0,17.17 0,34.34 0,51.51 -1.5,1.24 -3,2.49 -4.5,3.72 -17.64,-3.06 -35.24,-6.38 -52.81,-9.93 -6.15,4.94 -12.31,9.86 -18.45,14.74 0,31.06 0,62.11 0,93.16 6.14,7.5 12.3,14.96 18.45,22.4 25.6,5.17 51.29,9.84 77.05,13.98 6.2,-5.19 12.4,-10.42 18.61,-15.67 0,-15.68 0,-31.35 0,-47.03 -12.8,-1.94 -25.59,-4 -38.35,-6.18"
         style="fill:#140a06;fill-opacity:1;fill-rule:nonzero;stroke:none"
         id="path148" />
      <path
         d="m 1635.94,3402.54 c -13.82,-1 -27.62,-2.15 -41.41,-3.44 0,-63.6 0,-127.2 0,-190.8 -12.79,-1.2 -25.57,-2.52 -38.34,-3.97 0,63.61 0,127.2 0,190.8 -13.76,-1.56 -27.51,-3.26 -41.24,-5.12 0,12.28 0,24.56 0,36.84 40.19,5.42 80.55,9.6 120.99,12.53 0,-12.28 0,-24.56 0,-36.84"
         style="fill:#140a06;fill-opacity:1;fill-rule:nonzero;stroke:none"
         id="path150" />
      <path
         d="m 1684.65,3267.39 c 4.44,-4.17 8.89,-8.37 13.33,-12.58 0,-8.79 0,-17.58 0,-26.37 -4.44,-4.57 -8.89,-9.16 -13.33,-13.77 -8.89,-0.42 -17.77,-0.9 -26.65,-1.45 -4.45,4.12 -8.89,8.22 -13.33,12.31 0,8.79 0,17.58 0,26.37 4.44,4.69 8.89,9.38 13.33,14.04 8.88,0.55 17.77,1.03 26.65,1.45"
         style="fill:#140a06;fill-opacity:1;fill-rule:nonzero;stroke:none"
         id="path152" />
      <path
         d="m 1838.02,3216.07 c 0,63.6 0,127.2 0,190.8 -6.26,0.18 -12.53,0.34 -18.8,0.47 4.65,12.18 9.3,24.36 13.95,36.51 14.56,-0.4 29.1,-0.96 43.65,-1.67 -0.01,-75.88 0,-151.76 0,-227.64 -12.93,0.63 -25.86,1.14 -38.8,1.53"
         style="fill:#140a06;fill-opacity:1;fill-rule:nonzero;stroke:none"
         id="path154" />
      <path
         d="m 1988.06,3396.41 c -9.65,1.02 -19.31,1.98 -28.98,2.86 -1.51,-1.36 -3.03,-2.72 -4.54,-4.07 0,-17.98 0,-35.95 0,-53.93 1.52,-1.63 3.03,-3.26 4.54,-4.9 9.66,-0.89 19.33,-1.84 28.98,-2.86 1.5,1.34 3.01,2.68 4.52,4.01 0,17.98 0,35.95 0,53.93 -1.51,1.66 -3.01,3.31 -4.52,4.96 z m 42.8,13.57 c 0,-63.5 0,-127 0,-190.5 -6.23,-5.39 -12.45,-10.82 -18.69,-16.27 -25.61,3.03 -51.27,5.57 -76.97,7.59 -6.26,6.69 -12.52,13.34 -18.77,19.96 0,14.68 0,29.36 0,44.04 12.71,-0.88 25.42,-1.88 38.11,-3.01 0,-6.99 0,-13.99 0,-20.98 1.52,-1.63 3.03,-3.26 4.54,-4.9 9.66,-0.88 19.33,-1.83 28.98,-2.86 1.5,1.34 3.01,2.68 4.52,4.01 0,16.38 0,32.75 0,49.13 -19,2.06 -38.03,3.83 -57.09,5.34 -6.35,6.89 -12.71,13.75 -19.06,20.58 0,33.06 0,66.11 0,99.16 6.25,5.76 12.51,11.48 18.77,17.18 25.7,-2.02 51.36,-4.56 76.97,-7.59 6.23,-6.93 12.47,-13.89 18.69,-20.88"
         style="fill:#140a06;fill-opacity:1;fill-rule:nonzero;stroke:none"
         id="path156" />
      <path
         d="m 2139.34,3374.4 c -9.55,1.77 -19.11,3.47 -28.69,5.1 -1.5,-1.24 -3,-2.47 -4.49,-3.72 0,-17.97 0,-35.95 0,-53.92 1.5,-1.75 3,-3.5 4.49,-5.26 9.58,-1.62 19.14,-3.33 28.69,-5.1 1.49,1.22 2.99,2.44 4.48,3.66 -0.01,17.98 -0.01,35.95 0,53.92 -1.5,1.78 -2.99,3.55 -4.48,5.32 z m 42.31,10.24 c 0,-63.5 0,-127.01 0,-190.51 -6.14,-4.91 -12.3,-9.84 -18.46,-14.81 -25.32,5.03 -50.72,9.55 -76.21,13.57 -6.2,7.17 -12.4,14.31 -18.61,21.41 0,14.68 0,29.36 0,44.04 12.62,-1.86 25.21,-3.85 37.79,-5.96 0,-6.99 0,-13.99 0,-20.98 1.5,-1.75 3,-3.5 4.49,-5.25 9.58,-1.63 19.14,-3.34 28.69,-5.11 1.49,1.22 2.99,2.44 4.48,3.66 -0.01,16.37 -0.01,32.75 0,49.12 -18.8,3.54 -37.65,6.79 -56.54,9.78 -6.3,7.38 -12.61,14.73 -18.91,22.06 0,33.05 0,66.1 0,99.15 6.21,5.28 12.41,10.52 18.61,15.73 25.48,-4.02 50.9,-8.55 76.21,-13.58 6.16,-7.41 12.31,-14.85 18.46,-22.32"
         style="fill:#140a06;fill-opacity:1;fill-rule:nonzero;stroke:none"
         id="path158" />
      <path
         d="m 2293.56,3317.33 c 0,7.29 0,14.57 0,21.86 -12.52,3.4 -25.07,6.68 -37.65,9.83 0,-16.67 0,-33.34 0,-50.02 1.47,-1.87 2.95,-3.74 4.42,-5.61 17.29,-4.37 34.51,-8.98 51.68,-13.83 6.05,-7.91 12.09,-15.84 18.12,-23.79 0,-32.95 0,-65.9 0,-98.85 -6.03,-4.41 -12.07,-8.86 -18.12,-13.34 -24.87,7.03 -49.88,13.56 -75,19.58 -6.11,7.65 -12.22,15.27 -18.35,22.87 0,15.67 0,31.35 0,47.03 12.44,-2.85 24.86,-5.83 37.25,-8.93 0,-7.99 0,-15.98 0,-23.97 1.47,-1.87 2.95,-3.74 4.42,-5.61 9.62,-2.44 19.23,-4.94 28.82,-7.53 1.47,1.1 2.94,2.21 4.41,3.31 0,17.67 0,35.34 0,53.01 -1.47,1.89 -2.94,3.79 -4.41,5.69 -17.32,4.66 -34.7,9.08 -52.14,13.26 -6.11,7.66 -12.22,15.29 -18.35,22.89 0,36.64 0,73.28 0,109.92 37.41,-8.58 74.59,-18.28 111.47,-29.1 0,-19.67 0,-39.34 0,-59.01 -12.16,3.57 -24.35,7.01 -36.57,10.34"
         style="fill:#140a06;fill-opacity:1;fill-rule:nonzero;stroke:none"
         id="path160" />
      <path
         d="m 2079.86,1117.12 -108.49,-62.6 -79.3,292.5 c 31.09,5.2 61.39,12.3 90.89,21.6 l 96.9,-251.5"
         style="fill:#c82128;fill-opacity:1;fill-rule:nonzero;stroke:none"
         id="path162" />
      <path
         d="m 2325.61,1169.02 c -47.3,-3.4 -94,-14.2 -138.4,-32.5 l -162.9,246.6 c 37.1,14.3 72.8,31.7 106.5,52 l 194.8,-266.1"
         style="fill:#c82128;fill-opacity:1;fill-rule:nonzero;stroke:none"
         id="path164" />
      <path
         d="m 1843.37,1229.82 h -129.31 l 13.01,109.6 c 16.9,-1.2 33.89,-2.1 51.09,-2.1 17.61,0 34.9,0.9 52.2,2.2 l 13.01,-109.7"
         style="fill:#c82128;fill-opacity:1;fill-rule:nonzero;stroke:none"
         id="path166" />
      <path
         d="m 1665.36,1346.82 -79.4,-292.5 -108.5,62.6 96.9,251.3 c 29.51,-9.2 59.9,-16.3 91,-21.4"
         style="fill:#c82128;fill-opacity:1;fill-rule:nonzero;stroke:none"
         id="path168" />
      <path
         d="m 1533.01,1382.82 -162,-245.2 c -44.6,18 -91.5,28.5 -138.9,31.6 l 194.3,265.4 c 33.8,-20.2 69.4,-37.5 106.6,-51.8"
         style="fill:#c82128;fill-opacity:1;fill-rule:nonzero;stroke:none"
         id="path170" />
      <path
         d="m 1523.16,795.719 -80.39,46.41 h -436.66 c 23.32,-16.68 47.42,-32.438 71.98,-47.578 l 73.53,-45.102 h 291.39 l 80.15,46.27"
         style="fill:#140a06;fill-opacity:1;fill-rule:nonzero;stroke:none"
         id="path172" />
      <path
         d="m 2033.76,795.719 80.16,-46.27 h 293.04 l 73.68,45.102 c 24.56,15.14 48.66,30.898 71.98,47.578 h -438.46 l -80.4,-46.41"
         style="fill:#140a06;fill-opacity:1;fill-rule:nonzero;stroke:none"
         id="path174" />
    </g>
  </g>
</svg>
